<svg xmlns="http://www.w3.org/2000/svg" height="512" preserveAspectRatio="none" style="display: block;" version="1.1" viewBox="0 0 2048 2048" width="512">
<defs>
	<linearGradient gradientUnits="userSpaceOnUse" id="Gradient1" x1="742.685" x2="740.467" y1="1207.84" y2="1130.61">
		<stop class="stop0" offset="0" stop-color="rgb(148,198,254)" stop-opacity="1"></stop>
		<stop class="stop1" offset="1" stop-color="rgb(195,223,254)" stop-opacity="1"></stop>
	</linearGradient>
	<linearGradient gradientUnits="userSpaceOnUse" id="Gradient2" x1="912.567" x2="912.468" y1="1374" y2="1272.04">
		<stop class="stop0" offset="0" stop-color="rgb(43,135,255)" stop-opacity="1"></stop>
		<stop class="stop1" offset="1" stop-color="rgb(112,179,255)" stop-opacity="1"></stop>
	</linearGradient>
	<linearGradient gradientUnits="userSpaceOnUse" id="Gradient3" x1="1075.13" x2="1055.97" y1="1374.95" y2="958.232">
		<stop class="stop0" offset="0" stop-color="rgb(72,157,255)" stop-opacity="1"></stop>
		<stop class="stop1" offset="1" stop-color="rgb(255,255,251)" stop-opacity="1"></stop>
	</linearGradient>
	<linearGradient gradientUnits="userSpaceOnUse" id="Gradient4" x1="629.32" x2="625.055" y1="1374.24" y2="1275.02">
		<stop class="stop0" offset="0" stop-color="rgb(49,142,255)" stop-opacity="1"></stop>
		<stop class="stop1" offset="1" stop-color="rgb(118,182,255)" stop-opacity="1"></stop>
	</linearGradient>
	<linearGradient gradientUnits="userSpaceOnUse" id="Gradient5" x1="1314.03" x2="1323.31" y1="1034" y2="1319.15">
		<stop class="stop0" offset="0" stop-color="rgb(238,243,251)" stop-opacity="1"></stop>
		<stop class="stop1" offset="1" stop-color="rgb(114,182,255)" stop-opacity="1"></stop>
	</linearGradient>
	<linearGradient gradientUnits="userSpaceOnUse" id="Gradient6" x1="1028.5" x2="1015.93" y1="1747.25" y2="282.8">
		<stop class="stop0" offset="0" stop-color="rgb(10,105,255)" stop-opacity="1"></stop>
		<stop class="stop1" offset="1" stop-color="rgb(80,176,254)" stop-opacity="1"></stop>
	</linearGradient>
</defs>
<path d="M 1742.99 810.713 C 1742.07 824.702 1742.97 844.807 1742.98 859.563 L 1743.03 1354.14 C 1743.03 1371.19 1743.31 1388.38 1742.97 1405.42 C 1739.52 1576.89 1601.08 1724.51 1431.72 1744.31 C 1388.28 1749.39 1339.41 1747.15 1295.55 1747.12 L 699.413 1747.16 C 679.97 1747.16 660.346 1747.62 640.9 1746.42 C 467.062 1735.72 322.977 1594.91 306.116 1421.91 C 302.315 1382.91 304.105 1340.31 304.133 1300.89 L 304.112 692.931 C 304.085 634.285 301.027 591.52 317.904 534.642 C 370.105 358.724 518.235 284.081 689.548 284.037 L 1163.3 284.048 C 1169.24 284.03 1193.21 283 1196.81 284.079 C 1205.72 286.823 1226.09 285.528 1236.77 287.242 C 1327.63 301.818 1369.53 343.288 1428.97 403.914 L 1621.25 596.28 C 1712.59 687.984 1717.19 689.553 1742.99 810.713 z" fill="url(#Gradient6)" transform="translate(0,0)"></path>
<path d="M 1196.81 284.079 C 1205.72 286.823 1226.09 285.528 1236.77 287.242 C 1327.63 301.818 1369.53 343.288 1428.97 403.914 L 1621.25 596.28 C 1712.59 687.984 1717.19 689.553 1742.99 810.713 L 1470.45 810.778 C 1379.7 810.778 1353.47 789.202 1295.41 731.287 C 1182.56 618.716 1196.8 605.357 1196.8 449.554 L 1196.81 284.079 z" fill="rgb(245,246,246)" transform="translate(0,0)"></path>
<path d="M 1187.93 1317.76 C 1151.09 1297.13 1161.22 1271.83 1161.29 1233.11 C 1161.34 1204.26 1160.3 1175.11 1162.03 1146.35 C 1164.05 1116.7 1203.3 1100.5 1225.04 1086.29 L 1272.63 1055.11 C 1299.24 1037.68 1316.13 1023.08 1345.97 1041.81 C 1384.86 1066.23 1424.13 1090.18 1462.83 1114.86 C 1487.05 1130.31 1479.08 1177.81 1479.44 1202.48 C 1478.72 1249.75 1492.93 1290.38 1452.46 1317.76 C 1425.27 1332.42 1398.83 1352.73 1372.16 1368.7 C 1303.85 1409.6 1324.07 1403.59 1263 1365.83 C 1237.83 1349.94 1212.49 1334.53 1187.93 1317.76 z" fill="url(#Gradient5)" transform="translate(0,0)"></path>
<path d="M 1187.93 1317.76 C 1191.46 1317.39 1216.22 1319.39 1219.81 1320 C 1262.62 1327.3 1421.47 1298.25 1452.46 1317.76 C 1425.27 1332.42 1398.83 1352.73 1372.16 1368.7 C 1303.85 1409.6 1324.07 1403.59 1263 1365.83 C 1237.83 1349.94 1212.49 1334.53 1187.93 1317.76 z" fill="rgb(98,173,254)" transform="translate(0,0)"></path>
<path d="M 1308.46 1150.34 C 1342.65 1144.15 1375.36 1166.9 1381.46 1201.11 C 1387.56 1235.31 1364.72 1267.97 1330.49 1273.97 C 1296.4 1279.95 1263.9 1257.21 1257.83 1223.14 C 1251.76 1189.07 1274.4 1156.5 1308.46 1150.34 z" fill="rgb(36,131,254)" transform="translate(0,0)"></path>
<path d="M 576.017 1053.97 C 575.776 1005.07 611.884 960.318 662.868 957.529 C 690.314 956.028 757.744 955.326 781.614 959.334 C 832.311 967.845 833.158 1042.01 762.103 1043.72 C 734.097 1044.39 705.476 1044.3 677.284 1044.07 C 679.8 1066.7 675.285 1106.66 677.284 1130.94 L 677.284 1151.4 L 676.755 1200.07 C 676.708 1206.55 676.268 1221.61 677.284 1227.36 C 679.284 1259 681.706 1342.11 664.357 1362.21 C 640.995 1389.28 585.465 1377.21 578.143 1341.01 C 574.855 1319.17 575.987 1295.85 575.983 1273.72 L 576.017 1157.4 C 574.77 1141.52 573.923 1069.39 576.017 1053.97 z" fill="rgb(197,221,252)" transform="translate(0,0)"></path>
<path d="M 576.017 1053.97 C 575.776 1005.07 611.884 960.318 662.868 957.529 C 690.314 956.028 757.744 955.326 781.614 959.334 C 832.311 967.845 833.158 1042.01 762.103 1043.72 C 734.097 1044.39 705.476 1044.3 677.284 1044.07 C 675.895 1057.65 679.752 1076.4 675.229 1087.54 C 677.494 1075.33 675.959 1057.84 677.284 1044.07 C 709.404 1044.21 783.22 1047.44 804.94 1027.18 C 812.172 1020.43 817.869 1003.95 814.33 994.535 C 814.211 998.856 814.879 998.454 812.908 1001.57 L 811.895 1001.15 C 808.533 984.869 744.879 1004.19 734.122 1006.32 C 696.227 1013.4 608.008 1013.45 585.8 1036.76 C 570.336 1053 575.692 1078.83 576.711 1101.82 C 575.099 1085.1 577.404 1068.75 576.017 1053.97 z" fill="rgb(245,246,246)" transform="translate(0,0)"></path>
<path d="M 677.284 1274.62 C 676.489 1264.37 675.562 1153.85 677.284 1151.4 L 676.755 1200.07 C 676.708 1206.55 676.268 1221.61 677.284 1227.36 C 679.284 1259 681.706 1342.11 664.357 1362.21 C 640.995 1389.28 585.465 1377.21 578.143 1341.01 C 574.855 1319.17 575.987 1295.85 575.983 1273.72 L 576.017 1157.4 C 580.032 1169.78 578.358 1258.39 578.49 1277.51 C 609.881 1282.46 651.603 1270.78 677.284 1274.62 z" fill="url(#Gradient4)" transform="translate(0,0)"></path>
<path d="M 1022.98 1017.11 C 1018.03 932.176 1101.06 947.139 1109.23 993.361 C 1110 1001.53 1109.34 1015.27 1109.28 1024.06 L 1109.23 1077.68 C 1109.23 1133.54 1109.89 1190.6 1109.23 1246.35 C 1109.33 1274.6 1116.06 1344.9 1096.38 1364.66 C 1074.37 1386.77 1030.31 1376.58 1024.5 1343.9 C 1021.93 1329.46 1022.96 1313.54 1022.96 1299.05 L 1022.98 1227.36 L 1022.98 1017.11 z" fill="url(#Gradient3)" transform="translate(0,0)"></path>
<path d="M 1022.98 1017.11 C 1018.03 932.176 1101.06 947.139 1109.23 993.361 C 1098.45 980.34 1088.58 949.009 1059.78 960.066 L 1059.28 961.503 C 1071.19 966.346 1083.01 964.234 1093.07 975.551 L 1093.18 977.13 C 1082.92 981.01 1078.65 966.495 1068.27 968.39 C 1045.24 972.594 1043.4 1003.67 1028.98 1006.97 C 1021.14 1015.03 1026.76 1010.25 1022.98 1017.11 z" fill="rgb(245,246,246)" transform="translate(0,0)"></path>
<path d="M 869.489 1117.97 C 872.631 1064.77 944.237 1062.34 954.799 1110.44 C 957.515 1122.81 956.392 1143.51 956.362 1156.59 L 956.279 1227.36 C 957.297 1239.96 956.181 1261.18 956.279 1274.62 C 956.354 1295.85 958.104 1325.7 953.885 1345.84 C 947.66 1375.55 903.437 1385.89 882.275 1364.29 C 863.489 1345.12 869.397 1301.28 869.489 1274.62 L 869.461 1168.88 C 869.444 1155.15 868.419 1130.3 869.489 1117.97 z" fill="rgb(197,221,252)" transform="translate(0,0)"></path>
<path d="M 869.489 1274.62 C 881.505 1277.64 952.135 1272.46 956.279 1274.62 C 956.354 1295.85 958.104 1325.7 953.885 1345.84 C 947.66 1375.55 903.437 1385.89 882.275 1364.29 C 863.489 1345.12 869.397 1301.28 869.489 1274.62 z" fill="url(#Gradient2)" transform="translate(0,0)"></path>
<path d="M 869.489 1117.97 C 869.588 1157.34 868.565 1196.77 871.151 1236.02 C 874.154 1281.61 861.796 1270.81 909.912 1271.66 C 993.162 1273.14 937.435 1250.62 956.279 1227.36 C 957.297 1239.96 956.181 1261.18 956.279 1274.62 C 952.135 1272.46 881.505 1277.64 869.489 1274.62 L 869.461 1168.88 C 869.444 1155.15 868.419 1130.3 869.489 1117.97 z" fill="rgb(98,173,254)" transform="translate(0,0)"></path>
<path d="M 677.284 1130.94 L 737.977 1130.82 C 751.102 1130.79 765.075 1129.9 777.926 1132.3 C 809.546 1138.2 819.191 1177.51 796.01 1198.62 C 780.798 1212.48 756.223 1209.61 736.85 1209.59 L 677.284 1209.46 C 677.387 1213.47 677.871 1223.83 677.284 1227.36 C 676.268 1221.61 676.708 1206.55 676.755 1200.07 L 677.284 1151.4 L 677.284 1130.94 z" fill="url(#Gradient1)" transform="translate(0,0)"></path>
<path d="M 909.158 954.709 C 932.959 953.369 953.374 971.503 954.851 995.297 C 956.327 1019.09 938.31 1039.61 914.526 1041.22 C 890.547 1042.85 869.824 1024.65 868.335 1000.67 C 866.847 976.678 885.162 956.059 909.158 954.709 z" fill="rgb(245,246,246)" transform="translate(0,0)"></path>
<metadata><recraft-signature>{"signed_by": "recraft", "signature_b64": "zMXCchF2NeNO3Wf9DYwRksQ/lfDpGYix+g2dHLu8cMRE0JR4ihbJm6NiPoIl3tfsmjxRp288OzmM1ZdX9WE2Bg==", "signing_algo": "Ed25519", "generation_timestamp": 1768226306, "identifier": "fdd90619-70bf-4afd-8a76-9f402670be51"}</recraft-signature></metadata></svg>